<svg height="512" viewBox="-13 0 512 512" width="512" xmlns="http://www.w3.org/2000/svg"><path d="m471.886719 0h-456.824219c-8.320312 0-15.0625 6.742188-15.0625 15.0625v481.875c0 8.320312 6.742188 15.0625 15.0625 15.0625h456.824219c8.316406 0 15.0625-6.742188 15.0625-15.0625v-481.875c0-8.320312-6.746094-15.0625-15.0625-15.0625zm-15.0625 160.625h-137.265625v-130.5h137.265625zm0 160.628906h-137.265625v-130.503906h137.265625zm-426.699219-130.503906h145.84375v130.503906h-145.84375zm175.96875 32.347656h26.609375v5.019532c0 8.320312 6.742187 15.0625 15.058594 15.0625 8.320312 0 15.0625-6.742188 15.0625-15.0625v-5.019532h26.609375v66.269532h-83.339844zm83.339844-192.972656v162.847656h-26.609375v-11.042968c0-8.316407-6.742188-15.0625-15.0625-15.0625-8.316407 0-15.058594 6.746093-15.058594 15.0625v11.042968h-26.609375v-162.847656zm-113.464844 0v130.5h-145.84375v-130.5zm-145.84375 321.25h145.84375v130.503906h-145.84375zm175.96875 130.5v-162.382812h83.339844v162.386718h-83.339844zm113.464844 0v-130.5h137.265625v130.503906h-137.265625zm0 0"/><path d="m112.269531 365.019531h-51.210937c-8.320313 0-15.0625 6.746094-15.0625 15.0625v73.085938c0 8.320312 6.742187 15.0625 15.0625 15.0625h51.210937c8.316407 0 15.058594-6.742188 15.058594-15.0625v-73.085938c0-8.316406-6.742187-15.0625-15.058594-15.0625zm-15.0625 73.089844h-21.085937v-42.964844h21.085937zm0 0"/><path d="m112.269531 204.394531h-51.210937c-8.320313 0-15.0625 6.742188-15.0625 15.0625v73.085938c0 8.320312 6.742187 15.0625 15.0625 15.0625h51.210937c8.316407 0 15.058594-6.742188 15.058594-15.0625v-73.085938c0-8.320312-6.742187-15.0625-15.058594-15.0625zm-15.0625 73.089844h-21.085937v-42.964844h21.085937zm0 0"/><path d="m61.058594 146.980469h51.210937c8.316407 0 15.058594-6.746094 15.058594-15.0625v-73.085938c0-8.320312-6.742187-15.0625-15.058594-15.0625h-51.210937c-8.320313 0-15.0625 6.742188-15.0625 15.0625v73.085938c0 8.316406 6.742187 15.0625 15.0625 15.0625zm15.0625-73.089844h21.085937v42.964844h-21.085937zm0 0"/></svg>