<svg id="Capa_1" enable-background="new 990 900 900.294 900.294" height="512" viewBox="1 0 30 30" width="512"
	 xmlns="http://www.w3.org/2000/svg">
<path d="M15.342,0h-3.888h-0.169L2.668,9.019v0.125v4.162v18.12h26.09V0H15.342z M11.465,4.07l0.015,5.015L6.657,9.117
			L11.465,4.07z M25.811,28.48H5.614V12.07l8.82-0.06l-0.026-9.064h11.402V28.48z"/>
<path d="M22.064,15.13H9.494c-0.543,0-0.981,0.438-0.981,0.981s0.438,0.982,0.981,0.982h12.57c0.543,0,0.982-0.439,0.982-0.982
			S22.607,15.13,22.064,15.13z"/>
<path d="M22.064,19.472H9.494c-0.543,0-0.981,0.44-0.981,0.982s0.438,0.981,0.981,0.981h12.57c0.543,0,0.982-0.439,0.982-0.981
			C23.048,19.912,22.607,19.472,22.064,19.472z"/>
<path d="M22.064,23.814H9.494c-0.543,0-0.981,0.439-0.981,0.982s0.438,0.982,0.981,0.982h12.57c0.543,0,0.982-0.439,0.982-0.982
			S22.607,23.814,22.064,23.814z"/>
<path d="M21.704,8.753c0.554-0.389,0.916-1.028,0.916-1.755c0-1.187-0.962-2.148-2.147-2.148c-1.187,0-2.148,0.962-2.148,2.148
			c0,0.727,0.363,1.367,0.916,1.755c-1.311,0.496-2.248,1.749-2.264,3.23h6.99C23.952,10.501,23.016,9.249,21.704,8.753z"/>
</svg>